Coordinates
version=1
nRows=24
nColumns=38
inDegrees=no

Units are S.I. units (second, meters, Newtons, ...)
If the header above contains a line with 'inDegrees', this indicates whether rotational values are in degrees (yes) or radians (no).

endheader
time	pelvis_tilt	pelvis_list	pelvis_rotation	pelvis_tx	pelvis_ty	pelvis_tz	hip_flexion_r	hip_adduction_r	hip_rotation_r	knee_angle_r	ankle_angle_r	subtalar_angle_r	mtp_angle_r	hip_flexion_l	hip_adduction_l	hip_rotation_l	knee_angle_l	ankle_angle_l	subtalar_angle_l	mtp_angle_l	lumbar_extension	lumbar_bending	lumbar_rotation	arm_flex_r	arm_add_r	arm_rot_r	elbow_flex_r	pro_sup_r	wrist_flex_r	wrist_dev_r	arm_flex_l	arm_add_l	arm_rot_l	elbow_flex_l	pro_sup_l	wrist_flex_l	wrist_dev_l
25.1	-2.83317	1.38923	-1.63675	0.698053	-0.517734	0.948177	-0.330528	0.0130195	-0.447722	0	-0.0310274	0	0	-0.236014	-0.0188979	-0.0939864	0.00218631	-0.0521447	0	0	-0.308542	-0.0165105	-0.0609937	0.123636	-0.447126	0.0473961	1.84927	1.5708	0	0	0.304106	-0.302912	0.06865	1.83768	0.165107	0	0
25.11	-2.83452	1.38863	-1.63497	0.69788	-0.517755	0.948201	-0.331314	0.0133136	-0.44848	0	-0.0299803	0	0	-0.237278	-0.0190257	-0.0931261	0.000885363	-0.053288	0	0	-0.308637	-0.0163342	-0.0616989	0.122737	-0.444589	0.0455122	1.847	1.5708	0	0	0.305035	-0.302547	0.0690533	1.83615	0.164272	0	0
25.12	-2.834	1.38741	-1.6351	0.697694	-0.517811	0.948307	-0.33263	0.0131425	-0.449549	0	-0.0301205	0	0	-0.239028	-0.018725	-0.0919678	0	-0.0550181	0	0	-0.309399	-0.0165742	-0.0623369	0.121557	-0.442024	0.0427587	1.84353	1.5708	0	0	0.306211	-0.302315	0.0703386	1.83443	0.16282	0	0
25.13	-2.83572	1.38573	-1.63282	0.697578	-0.517838	0.948438	-0.335065	0.0136251	-0.449254	0	-0.0308969	0	0	-0.241407	-0.0191763	-0.091387	1.72881e-05	-0.0554048	0	0	-0.309719	-0.0166898	-0.0629873	0.119915	-0.439336	0.0390847	1.84051	1.5708	0	0	0.306912	-0.302356	0.0721261	1.83287	0.160982	0	0
25.14	-2.83775	1.38356	-1.63084	0.697477	-0.51767	0.948553	-0.33793	0.0141247	-0.448693	0	-0.0309099	0	0	-0.244521	-0.019612	-0.0912111	0	-0.0564493	0	0	-0.310495	-0.0168857	-0.0630762	0.118827	-0.436738	0.0350775	1.83877	1.5708	0	0	0.307286	-0.302519	0.0742234	1.83177	0.158892	0	0
25.15	-2.83946	1.38154	-1.62973	0.697265	-0.517115	0.948659	-0.340391	0.014532	-0.448173	0	-0.0319595	0	0	-0.247432	-0.0198043	-0.0912537	0	-0.0585262	0	0	-0.31076	-0.0173819	-0.0626466	0.118078	-0.434564	0.0307985	1.83772	1.5708	0	0	0.307383	-0.302838	0.0768423	1.8309	0.156792	0	0
25.16	-2.84356	1.38094	-1.62843	0.697377	-0.51791	0.94885	-0.338773	0.0140362	-0.450327	0	-0.0305684	0	0	-0.247745	-0.019552	-0.0927554	0	-0.0588904	0	0	-0.31414	-0.0163221	-0.0613598	0.118983	-0.433083	0.0277323	1.83763	1.5708	0	0	0.308005	-0.302843	0.0798319	1.83074	0.154831	0	0
25.17	-2.84827	1.37978	-1.62519	0.697336	-0.517935	0.948902	-0.339736	0.01455	-0.450256	0	-0.030299	0	0	-0.249497	-0.0200505	-0.0938485	0	-0.0590964	0	0	-0.314868	-0.0158143	-0.0606322	0.119186	-0.431628	0.0233962	1.83796	1.5708	0	0	0.30756	-0.302821	0.0823164	1.83121	0.153194	0	0
25.18	-2.85298	1.37838	-1.62229	0.697312	-0.517975	0.948972	-0.340962	0.0148916	-0.449472	0	-0.0304845	0	0	-0.251531	-0.0203937	-0.0955131	0	-0.059499	0	0	-0.315975	-0.0152922	-0.0595423	0.119958	-0.43048	0.0189791	1.83841	1.5708	0	0	0.307036	-0.302549	0.0846841	1.83215	0.152032	0	0
25.19	-2.85599	1.37698	-1.62133	0.6973	-0.518027	0.949047	-0.342078	0.0147429	-0.448215	0	-0.0316068	0	0	-0.253618	-0.0202945	-0.0968082	0	-0.0606677	0	0	-0.3171	-0.015195	-0.0583225	0.121244	-0.42975	0.0148825	1.83811	1.5708	0	0	0.306578	-0.302337	0.0870547	1.83319	0.151411	0	0
25.2	-2.85849	1.37596	-1.62097	0.697295	-0.518067	0.949085	-0.34272	0.0144553	-0.446853	0	-0.0325261	0	0	-0.255263	-0.0200985	-0.0981128	0	-0.0614576	0	0	-0.317652	-0.0152886	-0.0571159	0.123248	-0.429226	0.0115021	1.83627	1.5708	0	0	0.306114	-0.302086	0.0890166	1.83394	0.15133	0	0
25.21	-2.86097	1.37498	-1.62073	0.697324	-0.518116	0.949131	-0.343401	0.0141894	-0.445288	0	-0.0315349	0	0	-0.25696	-0.0199973	-0.0997133	0	-0.0612789	0	0	-0.318301	-0.0155064	-0.0560662	0.126904	-0.428155	0.00920689	1.83304	1.5708	0	0	0.305632	-0.301964	0.0901228	1.83478	0.151672	0	0
25.22	-2.8647	1.374	-1.6194	0.697387	-0.51822	0.949181	-0.343954	0.0140684	-0.443602	0	-0.0315855	0	0	-0.258478	-0.0200992	-0.101747	0	-0.0613171	0	0	-0.319146	-0.0155305	-0.0551782	0.13192	-0.426779	0.00843419	1.82924	1.5708	0	0	0.305223	-0.301873	0.0900807	1.83569	0.152298	0	0
25.23	-2.86871	1.37269	-1.61768	0.697429	-0.518381	0.949235	-0.344798	0.0139011	-0.441929	0	-0.0326053	0	0	-0.260197	-0.0202349	-0.103568	0	-0.0612705	0	0	-0.320622	-0.015298	-0.0543536	0.133685	-0.42736	0.00815059	1.82804	1.5708	0	0	0.305261	-0.30166	0.0891237	1.83654	0.152997	0	0
25.24	-2.87163	1.37168	-1.61668	0.697479	-0.518579	0.949276	-0.345411	0.0136877	-0.440525	0	-0.0320858	0	0	-0.261348	-0.0202708	-0.104713	0	-0.0610849	0	0	-0.321898	-0.0153429	-0.0539888	0.137155	-0.427161	0.00859501	1.8258	1.5708	0	0	0.305594	-0.301322	0.0874843	1.83725	0.15359	0	0
25.25	-2.87431	1.37128	-1.61572	0.697541	-0.518757	0.949265	-0.345456	0.0135826	-0.439051	0	-0.0311956	0	0	-0.261665	-0.0203088	-0.105796	0	-0.06061	0	0	-0.322411	-0.0155505	-0.0540366	0.142313	-0.426221	0.010367	1.82207	1.5708	0	0	0.30577	-0.301036	0.0853355	1.8379	0.154048	0	0
25.26	-2.87744	1.3708	-1.61407	0.697545	-0.518999	0.949265	-0.345501	0.0135388	-0.437811	0	-0.031884	0	0	-0.262	-0.0204426	-0.10631	0	-0.0607773	0	0	-0.323051	-0.01543	-0.0541775	0.144555	-0.426935	0.0128691	1.82116	1.5708	0	0	0.305949	-0.300889	0.0831375	1.83837	0.15439	0	0
25.27	-2.88139	1.37043	-1.61146	0.697524	-0.519248	0.949238	-0.34548	0.0137602	-0.436723	0	-0.0322202	0	0	-0.262163	-0.0207945	-0.106889	0	-0.0606185	0	0	-0.323578	-0.0151322	-0.0540631	0.146572	-0.42764	0.0154188	1.82021	1.5708	0	0	0.306265	-0.300708	0.0812662	1.83855	0.154574	0	0
25.28	-2.88524	1.37023	-1.60896	0.697514	-0.5195	0.949217	-0.345356	0.0140629	-0.435704	0	-0.0316205	0	0	-0.262208	-0.0211593	-0.107313	0	-0.0603403	0	0	-0.323914	-0.0149044	-0.053855	0.149168	-0.427749	0.0181929	1.81837	1.5708	0	0	0.306433	-0.300633	0.0794566	1.83853	0.154566	0	0
25.29	-2.88806	1.3704	-1.60747	0.697526	-0.519751	0.949175	-0.344775	0.0141847	-0.43473	0	-0.0316833	0	0	-0.261725	-0.0213367	-0.107893	0	-0.0595847	0	0	-0.323733	-0.0149455	-0.0539494	0.151961	-0.427649	0.0215922	1.81609	1.5708	0	0	0.306128	-0.300801	0.0772043	1.83858	0.154496	0	0
25.3	-2.88872	1.37055	-1.60828	0.697584	-0.52001	0.949166	-0.344111	0.0138352	-0.433698	0	-0.0328394	0	0	-0.261338	-0.0210852	-0.108555	0	-0.0589756	0	0	-0.323558	-0.0156125	-0.0541998	0.154749	-0.427288	0.0251961	1.81371	1.5708	0	0	0.305655	-0.301197	0.0745882	1.83874	0.154507	0	0
25.31	-2.88946	1.37055	-1.60898	0.697642	-0.520337	0.949184	-0.343487	0.0134369	-0.432772	0	-0.0343747	0	0	-0.261173	-0.0208717	-0.109068	0	-0.0585436	0	0	-0.323719	-0.0162727	-0.0540588	0.157401	-0.42695	0.0281848	1.81156	1.5708	0	0	0.305608	-0.301459	0.0724221	1.83859	0.15462	0	0
25.32	-2.89195	1.3706	-1.60765	0.697667	-0.520734	0.949192	-0.342812	0.0134717	-0.431911	0	-0.0347139	0	0	-0.260573	-0.0209705	-0.109451	0	-0.0583019	0	0	-0.324022	-0.0164552	-0.0536437	0.159735	-0.426687	0.0301974	1.80973	1.5708	0	0	0.306185	-0.301252	0.070833	1.83803	0.154781	0	0
25.33	-2.89392	1.37074	-1.60677	0.697687	-0.521129	0.949215	-0.341985	0.0133691	-0.431202	0	-0.035988	0	0	-0.259978	-0.0209875	-0.109915	0	-0.0584269	0	0	-0.324228	-0.016642	-0.0532133	0.161785	-0.426298	0.031669	1.80795	1.5708	0	0	0.306755	-0.30093	0.0694505	1.83736	0.154931	0	0
